# xmcd
# Track frame offsets: 
#        150
#        12544
#        27021
#        40917
#        51596
#        64978
#        78268
#        90916
#        103061
#        115703
#        129320
#        141792
#        154339
#        167017
#        178409
#        188784
#        201179
#        213921
#        226370
#        239377
# Disc length: 3353 seconds
# Revision: 0
# Processed by: cddbd v1.4b41PL3 Copyright (c) Steve Scherf et al.
# Submitted via: ExactAudioCopy v0.90a9
#
DISCID=140d1714
DTITLE=John Lee Hooker - Graveyard Blues
DYEAR=1900
DGENRE=
TTITLE0=War Is Over
TTITLE1=Henry's Swing Club
TTITLE2=Alberta
TTITLE3=Hasting's Street Boogie
TTITLE4=Build Myself a Cave
TTITLE5=Momma Poppa Boogie
TTITLE6=Graveyard Blues
TTITLE7=Burnin' Hell
TTITLE8=Sailing Blues
TTITLE9=Black Cat Blues
TTITLE10=Miss Sadie Mae
TTITLE11=Canal Street Blues
TTITLE12=Huckle Up Baby
TTITLE13=Goin' Down Highway 51
TTITLE14=Sail On, Little Girl, Sail On
TTITLE15=Alberta (Part 2)
TTITLE16=My Baby's Got Something
TTITLE17=Boogie Chillin' #2
TTITLE18=21 Boogie
TTITLE19=Rollin' Blues
EXTD=
EXTT0=
EXTT1=
EXTT2=
EXTT3=
EXTT4=
EXTT5=
EXTT6=
EXTT7=
EXTT8=
EXTT9=
EXTT10=
EXTT11=
EXTT12=
EXTT13=
EXTT14=
EXTT15=
EXTT16=
EXTT17=
EXTT18=
EXTT19=
PLAYORDER=
